<?xml version="1.0" encoding="UTF-8"?>
<svg id="_图层_2" data-name="图层 2" xmlns="http://www.w3.org/2000/svg" viewBox="0 0 141.85 141.73">
  <defs>
    <style>
      .cls-1 {
        fill: #fff;
      }

      .cls-2 {
        fill: #c30d23;
      }

      .cls-3 {
        fill: none;
        stroke: #fff;
        stroke-linecap: round;
        stroke-linejoin: round;
        stroke-width: 8px;
      }
    </style>
  </defs>
  <rect class="cls-1" x=".11" width="141.73" height="141.73" rx="17.01" ry="17.01"/>
  <rect class="cls-2" x="4.48" y="3.98" width="133.23" height="112.67" rx="14.17" ry="14.17"/>
  <g>
    <path class="cls-2" d="M30.6,127.1c-.04,.87-.44,3.28-.6,4.16l-.72,4h-3.84l-2.28-11.46h2.79l1.13,5.88c.25,1.31,.38,2.22,.44,3.25h.15c.1-1.01,.26-1.88,.54-3.25l1.22-5.88h2.6l1.28,5.88c.29,1.31,.46,2.37,.53,3.25h.15c.04-.9,.18-1.94,.4-3.25l1-5.88h2.76l-2.28,11.46h-3.67l-.82-4.06c-.16-.81-.59-3.22-.63-4.1h-.15Z"/>
    <path class="cls-2" d="M48.05,135.25h-2.72l-.66-2.69h-3.51l-.65,2.69h-2.51l2.92-11.46h4.19l2.94,11.46Zm-4.76-8.38c-.13-.51-.25-1.04-.32-1.57h-.07c-.09,.53-.21,1.06-.34,1.57l-.9,3.63h2.51l-.88-3.63Z"/>
    <path class="cls-2" d="M54.84,135.25l-1.72-4.19h-1.1v4.19h-2.65v-11.46h3.86c2.37,0,4.04,1.07,4.04,3.37,0,1.63-.71,2.59-1.84,3.07l2.47,5.03h-3.07Zm-2.82-6.14h.94c1.04,0,1.68-.46,1.68-1.67s-.63-1.73-1.68-1.73h-.94v3.41Z"/>
    <path class="cls-2" d="M66.33,133.27v1.98h-7.02v-11.46h6.89v1.98h-4.25v2.72h3.82v1.91h-3.82v2.87h4.38Z"/>
    <path class="cls-2" d="M77.2,123.79v11.46h-2.72v-4.78h-3.82v4.78h-2.72v-11.46h2.72v4.56h3.82v-4.56h2.72Z"/>
    <path class="cls-2" d="M88.71,129.52c0,4.11-2.01,5.88-4.88,5.88s-4.88-1.76-4.88-5.88,2.01-5.88,4.88-5.88,4.88,1.76,4.88,5.88Zm-2.87,0c0-2.91-.72-3.97-2.01-3.97s-2.01,1.06-2.01,3.97,.72,3.97,2.01,3.97,2.01-1.06,2.01-3.97Z"/>
    <path class="cls-2" d="M99.73,123.79v7.35c0,2.95-1.91,4.26-4.63,4.26s-4.63-1.31-4.63-4.26v-7.35h2.72v7.23c0,1.73,.79,2.45,1.91,2.45s1.91-.72,1.91-2.45v-7.23h2.72Z"/>
    <path class="cls-2" d="M104.05,131.46c.19,1.29,.78,2,2,2,.69,0,1.21-.35,1.21-1.09,0-.82-.5-1.15-2.31-1.78-2.09-.73-3.16-1.75-3.16-3.5,0-2.16,1.53-3.45,3.85-3.45s3.79,1.18,4.11,3.37l-2.62,.54c-.1-1.38-.65-2.1-1.62-2.1-.75,0-1.16,.47-1.16,1.17,0,.78,.54,1.19,2.19,1.72,2.44,.78,3.47,1.69,3.47,3.57,0,2.13-1.54,3.5-4.13,3.5s-4.23-1.22-4.54-3.62l2.7-.34Z"/>
    <path class="cls-2" d="M118.65,133.27v1.98h-7.02v-11.46h6.89v1.98h-4.25v2.72h3.82v1.91h-3.82v2.87h4.38Z"/>
  </g>
  <path class="cls-3" d="M84.89,47.35V21.41H23.86v51.87h30.52"/>
  <path class="cls-3" d="M115.41,99.22V47.35H54.37v51.87h61.04Z"/>
  <path class="cls-3" d="M91.94,73.29H54.37m37.56,0l-11.74-9.98,11.74,9.98Zm0,0l-11.74,9.98,11.74-9.98Z"/>
  <path class="cls-3" d="M54.37,47.35v51.87"/>
</svg>