<?xml version="1.0" encoding="UTF-8"?>
<svg id="_图层_1" data-name="图层 1" xmlns="http://www.w3.org/2000/svg" viewBox="0 0 141.73 141.73">
  <defs>
    <style>
      .cls-1, .cls-2 {
        fill: #fff;
      }

      .cls-3 {
        fill: #ad061c;
      }

      .cls-2 {
        font-family: ToppanBunkyuMidashiGothicStdN-ExtraBold-83pv-RKSJ-H, 'Toppan Bunkyu Midashi Gothic';
        font-size: 17.38px;
        font-weight: 700;
      }

      .cls-4 {
        fill: none;
        stroke: #ad061c;
        stroke-linecap: round;
        stroke-linejoin: round;
        stroke-width: 8px;
      }

      .cls-5 {
        letter-spacing: 0em;
      }

      .cls-6 {
        letter-spacing: 0em;
      }
    </style>
  </defs>
  <rect class="cls-1" width="141.73" height="141.73" rx="18.8" ry="18.8"/>
  <rect class="cls-3" x="0" y="104.14" width="141.73" height="37.59" rx="18.8" ry="18.8"/>
  <text class="cls-2" transform="translate(8.31 128.45) scale(.97 1)"><tspan x="0" y="0">MAN</tspan><tspan class="cls-5" x="42.13" y="0">A</tspan><tspan class="cls-6" x="54.19" y="0">GEMENT</tspan></text>
  <path class="cls-4" d="M62.24,27.44v-6.32c0-2.33,1.54-4.21,3.45-4.21h34.5c1.91,0,3.45,1.89,3.45,4.21v46.32c0,2.33-1.54,4.21-3.45,4.21h-6.9"/>
  <path class="cls-4" d="M41.54,44.29h34.5c1.91,0,3.45,1.89,3.45,4.21v42.11c0,2.33-1.54,4.21-3.45,4.21H41.54c-1.91,0-3.45-1.89-3.45-4.21V48.5c0-2.33,1.54-4.21,3.45-4.21Z"/>
</svg>