<?xml version="1.0" encoding="UTF-8"?>
<svg id="_图层_1" data-name="图层 1" xmlns="http://www.w3.org/2000/svg" viewBox="0 0 141.73 141.73">
  <defs>
    <style>
      .cls-1 {
        fill: #fff;
      }

      .cls-2 {
        fill: #ad061c;
      }

      .cls-3 {
        fill: none;
        stroke: #ad061c;
        stroke-linecap: round;
        stroke-linejoin: round;
        stroke-width: 8px;
      }
    </style>
  </defs>
  <rect class="cls-1" width="141.73" height="141.73" rx="18.8" ry="18.8"/>
  <rect class="cls-2" x="0" y="104.14" width="141.73" height="37.59" rx="18.8" ry="18.8"/>
  <g>
    <path class="cls-1" d="M22.8,114.89v13.56h-2.79v-5.3c0-1.86,.03-3.7,.19-5.56h-.17l-2.52,10.86h-2.49l-2.57-10.86h-.17c.14,1.84,.17,3.67,.17,5.56v5.3h-2.79v-13.56h4.63l1.27,5.35c.34,1.39,.63,3.3,.71,4.62h.17c.07-1.32,.34-3.27,.64-4.61l1.23-5.37h4.48Z"/>
    <path class="cls-1" d="M35.89,128.45h-3.13l-.76-3.18h-4.04l-.74,3.18h-2.89l3.36-13.56h4.82l3.38,13.56Zm-5.48-9.91c-.15-.61-.29-1.23-.37-1.86h-.08c-.1,.62-.24,1.25-.39,1.86l-1.03,4.29h2.89l-1.01-4.29Z"/>
    <path class="cls-1" d="M47.94,114.89v13.56h-4.4l-2.81-8.08c-.32-.9-.56-1.84-.76-2.78h-.15c.22,2.22,.32,5.35,.32,7.25v3.62h-2.74v-13.56h4.4l2.81,8.08c.32,.9,.58,1.84,.78,2.78h.15c-.22-2.24-.34-4.62-.34-6.88v-3.98h2.74Z"/>
    <path class="cls-1" d="M61.03,128.45h-3.13l-.76-3.18h-4.04l-.74,3.18h-2.89l3.36-13.56h4.82l3.38,13.56Zm-5.48-9.91c-.15-.61-.29-1.23-.37-1.86h-.08c-.1,.62-.24,1.25-.39,1.86l-1.03,4.29h2.89l-1.01-4.29Z"/>
    <path class="cls-1" d="M72.58,121.03c.05,.52,.07,.96,.07,1.48,0,3.89-1.84,6.14-5.24,6.14-3.75,0-5.7-2.36-5.7-6.97,0-4.29,2.13-6.95,5.55-6.95,2.76,0,4.55,1.53,5.02,4.29l-3.15,.73c-.15-1.89-.76-2.76-1.93-2.76-1.47,0-2.28,1.62-2.28,4.57,0,3.28,.88,4.92,2.62,4.92,1.34,0,1.99-1.06,2.01-3.27h-2.42v-2.17h5.44Z"/>
    <path class="cls-1" d="M82.75,126.1v2.35h-8.08v-13.56h7.93v2.35h-4.89v3.21h4.4v2.26h-4.4v3.39h5.04Z"/>
    <path class="cls-1" d="M97.75,114.89v13.56h-2.79v-5.3c0-1.86,.03-3.7,.19-5.56h-.17l-2.52,10.86h-2.49l-2.57-10.86h-.17c.14,1.84,.17,3.67,.17,5.56v5.3h-2.79v-13.56h4.63l1.27,5.35c.34,1.39,.63,3.3,.71,4.62h.17c.07-1.32,.34-3.27,.64-4.61l1.23-5.37h4.48Z"/>
    <path class="cls-1" d="M108.54,126.1v2.35h-8.08v-13.56h7.93v2.35h-4.89v3.21h4.4v2.26h-4.4v3.39h5.04Z"/>
    <path class="cls-1" d="M120.93,114.89v13.56h-4.4l-2.81-8.08c-.32-.9-.56-1.84-.76-2.78h-.15c.22,2.22,.32,5.35,.32,7.25v3.62h-2.74v-13.56h4.4l2.81,8.08c.32,.9,.58,1.84,.78,2.78h.15c-.22-2.24-.34-4.62-.34-6.88v-3.98h2.74Z"/>
    <path class="cls-1" d="M132.76,117.41h-3.55v11.04h-3.04v-11.04h-3.55v-2.52h10.14v2.52Z"/>
  </g>
  <path class="cls-3" d="M62.24,27.44v-6.32c0-2.33,1.54-4.21,3.45-4.21h34.5c1.91,0,3.45,1.89,3.45,4.21v46.32c0,2.33-1.54,4.21-3.45,4.21h-6.9"/>
  <path class="cls-3" d="M41.54,44.29h34.5c1.91,0,3.45,1.89,3.45,4.21v42.11c0,2.33-1.54,4.21-3.45,4.21H41.54c-1.91,0-3.45-1.89-3.45-4.21V48.5c0-2.33,1.54-4.21,3.45-4.21Z"/>
</svg>